<svg width="440" height="96" viewBox="0 0 440 96" fill="none" xmlns="http://www.w3.org/2000/svg">
  <!-- Logo Background -->
  <rect x="0" y="16" width="64" height="64" rx="16" fill="url(#gradient)" />
  
  <!-- Letter B -->
  <path d="M16 32h20c4.4 0 8 3.6 8 8 0 2.2-.8 4.2-2.4 5.6 1.6 1.4 2.4 3.4 2.4 5.6 0 4.4-3.6 8-8 8H16V32z" fill="white" />
  <path d="M20 36v8h16c2.2 0 4-1.8 4-4s-1.8-4-4-4h-16z" fill="#6366F1" />
  <path d="M20 48v8h20c2.2 0 4-1.8 4-4s-1.8-4-4-4h-20z" fill="#6366F1" />
  
  <!-- Checkmark -->
  <circle cx="52" cy="38" r="8" fill="#10B981" />
  <path d="M48 38l3 3 6-6" stroke="white" stroke-width="4" stroke-linecap="round" stroke-linejoin="round" />
  
  <!-- Text: Bingo -->
  <text x="88" y="56" font-family="Inter, -apple-system, BlinkMacSystemFont, 'Segoe UI', sans-serif" font-size="40" font-weight="700" fill="white">Bingo</text>
  
  <!-- Text: Todo -->
  <text x="208" y="56" font-family="Inter, -apple-system, BlinkMacSystemFont, 'Segoe UI', sans-serif" font-size="40" font-weight="500" fill="white">Todo</text>
  
  <defs>
    <linearGradient id="gradient" x1="0%" y1="0%" x2="100%" y2="100%">
      <stop offset="0%" style="stop-color:#6366F1;stop-opacity:1" />
      <stop offset="100%" style="stop-color:#3B82F6;stop-opacity:1" />
    </linearGradient>
  </defs>
</svg>
