<svg width="180" height="40" viewBox="0 0 180 40" fill="none" xmlns="http://www.w3.org/2000/svg">
  <!-- Logo Background -->
  <rect x="0" y="4" width="32" height="32" rx="8" fill="url(#gradient)" />
  
  <!-- Letter B -->
  <path d="M8 12h10c2.2 0 4 1.8 4 4 0 1.1-.4 2.1-1.2 2.8.8.7 1.2 1.7 1.2 2.8 0 2.2-1.8 4-4 4H8V12z" fill="white" />
  <path d="M10 14v4h8c1.1 0 2-.9 2-2s-.9-2-2-2h-8z" fill="#6366F1" />
  <path d="M10 20v4h10c1.1 0 2-.9 2-2s-.9-2-2-2h-10z" fill="#6366F1" />
  
  <!-- Checkmark -->
  <circle cx="26" cy="15" r="4" fill="#10B981" />
  <path d="M24 15l1.5 1.5 3-3" stroke="white" stroke-width="2" stroke-linecap="round" stroke-linejoin="round" />
  
  <!-- Text: Bingo -->
  <text x="44" y="18" font-family="Inter, -apple-system, BlinkMacSystemFont, 'Segoe UI', sans-serif" font-size="18" font-weight="700" fill="#111827">Bingo</text>
  
  <!-- Text: Todo -->
  <text x="44" y="32" font-family="Inter, -apple-system, BlinkMacSystemFont, 'Segoe UI', sans-serif" font-size="14" font-weight="500" fill="#6B7280">Todo</text>
  
  <defs>
    <linearGradient id="gradient" x1="0%" y1="0%" x2="100%" y2="100%">
      <stop offset="0%" style="stop-color:#6366F1;stop-opacity:1" />
      <stop offset="100%" style="stop-color:#3B82F6;stop-opacity:1" />
    </linearGradient>
  </defs>
</svg>
