<svg width="32" height="32" viewBox="0 0 32 32" fill="none" xmlns="http://www.w3.org/2000/svg">
  <!-- Logo Background -->
  <rect x="0" y="0" width="32" height="32" rx="8" fill="url(#gradient)" />
  
  <!-- Letter B -->
  <path d="M8 8h10c2.2 0 4 1.8 4 4 0 1.1-.4 2.1-1.2 2.8.8.7 1.2 1.7 1.2 2.8 0 2.2-1.8 4-4 4H8V8z" fill="white" />
  <path d="M10 10v4h8c1.1 0 2-.9 2-2s-.9-2-2-2h-8z" fill="#6366F1" />
  <path d="M10 16v4h10c1.1 0 2-.9 2-2s-.9-2-2-2h-10z" fill="#6366F1" />
  
  <!-- Checkmark -->
  <circle cx="26" cy="11" r="4" fill="#10B981" />
  <path d="M24 11l1.5 1.5 3-3" stroke="white" stroke-width="2" stroke-linecap="round" stroke-linejoin="round" />
  
  <defs>
    <linearGradient id="gradient" x1="0%" y1="0%" x2="100%" y2="100%">
      <stop offset="0%" style="stop-color:#6366F1;stop-opacity:1" />
      <stop offset="100%" style="stop-color:#3B82F6;stop-opacity:1" />
    </linearGradient>
  </defs>
</svg>
