<svg width="32" height="32" viewBox="0 0 32 32" fill="none" xmlns="http://www.w3.org/2000/svg">
  <!-- Background -->
  <rect width="32" height="32" rx="6" fill="url(#gradient)" />
  
  <!-- Letter B with proper shape -->
  <path d="M8 6v14h8c2.2 0 4-1.8 4-4 0-1.1-.4-2.1-1.2-2.8.8-.7 1.2-1.7 1.2-2.8 0-2.2-1.8-4-4-4H8z" fill="white" />
  <!-- Cut out the inside parts to create B shape -->
  <path d="M10 8v4h6c1.1 0 2-.9 2-2s-.9-2-2-2h-6z" fill="#6366F1" />
  <path d="M10 14v4h7c1.1 0 2-.9 2-2s-.9-2-2-2h-7z" fill="#6366F1" />
  
  <!-- Checkmark in top right -->
  <circle cx="24" cy="8" r="3.5" fill="#10B981" />
  <path d="M22 8l1.5 1.5 3-3" stroke="white" stroke-width="2" stroke-linecap="round" stroke-linejoin="round" />
  
  <defs>
    <linearGradient id="gradient" x1="0%" y1="0%" x2="100%" y2="100%">
      <stop offset="0%" style="stop-color:#6366F1;stop-opacity:1" />
      <stop offset="100%" style="stop-color:#3B82F6;stop-opacity:1" />
    </linearGradient>
  </defs>
</svg>
